HIERARCHY
ROOT Hips
{
	OFFSET 0.00000 0.00000 0.00000
	CHANNELS 6 Xposition Yposition Zposition Zrotation Yrotation Xrotation 
	JOINT LHipJoint
	{
		OFFSET 0 0 0
		CHANNELS 3 Zrotation Yrotation Xrotation
		JOINT LeftUpLeg
		{
			OFFSET 1.86795 -1.59681 0.65681
			CHANNELS 3 Zrotation Yrotation Xrotation
			JOINT LeftLeg
			{
				OFFSET 2.30491 -6.33268 0.00000
				CHANNELS 3 Zrotation Yrotation Xrotation
				JOINT LeftFoot
				{
					OFFSET 2.46780 -6.78022 0.00000
					CHANNELS 3 Zrotation Yrotation Xrotation
					JOINT LeftToeBase
					{
						OFFSET 0.07897 -0.21698 1.59652
						CHANNELS 3 Zrotation Yrotation Xrotation
						End Site
						{
							OFFSET 0.00000 -0.00000 0.82310
						}
					}
				}
			}
		}
	}
	JOINT RHipJoint
	{
		OFFSET 0 0 0
		CHANNELS 3 Zrotation Yrotation Xrotation
		JOINT RightUpLeg
		{
			OFFSET -1.93650 -1.59681 0.65681
			CHANNELS 3 Zrotation Yrotation Xrotation
			JOINT RightLeg
			{
				OFFSET -2.29410 -6.30299 0.00000
				CHANNELS 3 Zrotation Yrotation Xrotation
				JOINT RightFoot
				{
					OFFSET -2.48738 -6.83403 0.00000
					CHANNELS 3 Zrotation Yrotation Xrotation
					JOINT RightToeBase
					{
						OFFSET -0.08699 -0.23899 1.89395
						CHANNELS 3 Zrotation Yrotation Xrotation
						End Site
						{
							OFFSET -0.00000 -0.00000 0.96904
						}
					}
				}
			}
		}
	}
	JOINT LowerBack
	{
		OFFSET 0 0 0
		CHANNELS 3 Zrotation Yrotation Xrotation
		JOINT Spine
		{
			OFFSET 0.03629 1.99740 -0.07548
			CHANNELS 3 Zrotation Yrotation Xrotation
			JOINT Spine1
			{
				OFFSET 0.03970 1.94298 0.17218
				CHANNELS 3 Zrotation Yrotation Xrotation
				JOINT Neck
				{
					OFFSET 0 0 0
					CHANNELS 3 Zrotation Yrotation Xrotation
					JOINT Neck1
					{
						OFFSET -0.05054 1.79469 0.04241
						CHANNELS 3 Zrotation Yrotation Xrotation
						JOINT Head
						{
							OFFSET 0.05195 1.78475 -0.22133
							CHANNELS 3 Zrotation Yrotation Xrotation
							End Site
							{
								OFFSET 0.02420 1.80711 -0.07950
							}
						}
					}
				}
				JOINT LeftShoulder
				{
					OFFSET 0 0 0
					CHANNELS 3 Zrotation Yrotation Xrotation
					JOINT LeftArm
					{
						OFFSET 2.92134 1.19850 0.36056
						CHANNELS 3 Zrotation Yrotation Xrotation
						JOINT LeftForeArm
						{
							OFFSET 4.84137 -0.00000 0.00000
							CHANNELS 3 Zrotation Yrotation Xrotation
							JOINT LeftHand
							{
								OFFSET 3.24520 -0.00000 -0.00000
								CHANNELS 3 Zrotation Yrotation Xrotation
								JOINT LeftFingerBase
								{
									OFFSET 0 0 0
									CHANNELS 3 Zrotation Yrotation Xrotation
									JOINT LeftHandIndex1
									{
										OFFSET 0.52122 -0.00000 0.00000
										CHANNELS 3 Zrotation Yrotation Xrotation
										End Site
										{
											OFFSET 0.42022 -0.00000 0.00000
										}
									}
								}
								JOINT LThumb
								{
									OFFSET 0 0 0
									CHANNELS 3 Zrotation Yrotation Xrotation
									End Site
									{
										OFFSET 0.42664 -0.00000 0.42664
									}
								}
							}
						}
					}
				}
				JOINT RightShoulder
				{
					OFFSET 0 0 0
					CHANNELS 3 Zrotation Yrotation Xrotation
					JOINT RightArm
					{
						OFFSET -2.84327 1.20795 0.50191
						CHANNELS 3 Zrotation Yrotation Xrotation
						JOINT RightForeArm
						{
							OFFSET -4.72284 -0.00000 0.00000
							CHANNELS 3 Zrotation Yrotation Xrotation
							JOINT RightHand
							{
								OFFSET -3.23459 -0.00000 0.00000
								CHANNELS 3 Zrotation Yrotation Xrotation
								JOINT RightFingerBase
								{
									OFFSET 0 0 0
									CHANNELS 3 Zrotation Yrotation Xrotation
									JOINT RightHandIndex1
									{
										OFFSET -0.30742 -0.00000 0.00000
										CHANNELS 3 Zrotation Yrotation Xrotation
										End Site
										{
											OFFSET -0.24785 -0.00000 0.00000
										}
									}
								}
								JOINT RThumb
								{
									OFFSET 0 0 0
									CHANNELS 3 Zrotation Yrotation Xrotation
									End Site
									{
										OFFSET -0.25163 -0.00000 0.25163
									}
								}
							}
						}
					}
				}
			}
		}
	}
}
MOTION
Frames: 7
Frame Time: .0083333
20.1193 15.8832 -20.9165 0 0 0 0 0 0 -21 0 0 0 0 0 0 0 0 0 0 0 0 0 0 21 0 0 0 0 0 0 0 0 0 0 0 0 0 0 0 0 0 0 0 0 0 0 -16 0 0 21 0 0 11 0 0 0 -8 0 0 0 0 0 0 0 0 0 0 0 0 0 0 0 0 0 0 0 0 8 0 0 0 0 0 0 0 0 0 0 0 0 0 0 0 0 0
20.1193 15.8832 -20.9165 7.5693 -37.6533 20.2658 0.0000 0.0000 0.0000 -23.9869 -21.1497 -30.4097 3.8039 11.8948 35.3608 0.5038 4.8820 -16.0856 1.1441 -6.7922 -19.1012 0.0000 0.0000 0.0000 12.6055 17.8707 -59.6238 -18.8134 -19.9662 86.5286 -0.1076 -5.8132 6.6433 -0.3963 4.0419 -11.1945 0.1196 -1.4532 24.4045 -0.7089 -2.0781 7.4840 -0.2445 -1.0755 -5.3501 -6.3934 1.2744 -5.3400 6.6689 2.5278 -17.4328 3.0936 1.2273 -4.4951 0.0000 -0.0000 0.0000 -88.9969 -31.4378 51.3783 112.2559 -58.0431 -79.1476 -0.0000 -0.0000 68.5048 -38.7221 38.0171 -26.2809 -7.1250 0.0000 -0.0000 -73.8336 53.8336 -26.7772 0.0000 -0.0000 0.0000 86.8237 47.8831 55.5067 -107.1262 58.8622 -74.7750 0.0000 0.0000 21.4780 11.5604 -6.4834 -1.3231 7.1250 -0.0000 -0.0000 30.8490 -34.8249 8.8152
19.9800 15.9119 -20.7422 8.6192 -38.6316 18.4308 0.0000 0.0000 0.0000 -26.0659 -19.5221 -26.7154 3.2412 11.0756 32.5354 0.4685 5.1518 -15.8466 1.2085 -6.9740 -19.6384 0.0000 0.0000 0.0000 11.1880 17.6711 -61.1000 -18.8340 -19.9674 86.5890 0.0013 -7.5060 5.2314 -0.4412 4.2620 -11.8149 -0.7584 -1.2145 25.0948 -1.1840 -2.0345 7.6444 -0.2570 -1.0567 -5.5054 -6.2987 1.3556 -5.3468 6.6839 2.6396 -17.4330 3.0795 1.2758 -4.5005 0.0000 -0.0000 0.0000 -88.8008 -31.3753 50.9993 112.7260 -57.9556 -79.5462 -0.0000 -0.0000 67.9790 -39.2947 37.1595 -26.3034 -7.1250 0.0000 -0.0000 -73.1338 53.2958 -25.0749 0.0000 -0.0000 0.0000 87.1957 47.9922 55.7677 -107.3293 58.8343 -74.9488 0.0000 0.0000 21.7103 12.8603 -6.5399 -1.4895 7.1250 -0.0000 -0.0000 31.8041 -34.7658 9.2298
19.8306 15.9737 -20.5600 9.5943 -39.4533 16.9206 0.0000 0.0000 0.0000 -27.6364 -18.3215 -23.9086 2.9116 10.5505 30.7785 0.4195 5.4809 -15.4756 1.3086 -7.2463 -20.4470 0.0000 0.0000 0.0000 9.8462 17.5856 -62.2343 -18.3994 -19.9385 85.3155 0.0621 -8.2617 4.4287 -0.3980 4.0507 -11.2194 -1.3220 -1.0248 25.4240 -1.7165 -1.9862 7.7965 -0.5233 -1.0356 -5.5018 -6.2479 1.3820 -5.2871 6.7478 2.6832 -17.5087 3.0902 1.2894 -4.5359 0.0000 -0.0000 0.0000 -88.5275 -31.4900 51.0087 112.7136 -57.9580 -79.5356 -0.0000 -0.0000 67.1613 -39.4914 37.5809 -26.6838 -7.1250 0.0000 -0.0000 -73.7926 53.4646 -25.9470 0.0000 -0.0000 0.0000 87.7660 48.1348 55.8042 -107.2522 58.8450 -74.8828 0.0000 0.0000 21.9176 13.9332 -5.3033 -1.3136 7.1250 -0.0000 -0.0000 32.1264 -33.5935 10.4508
19.6837 15.9969 -20.3860 10.0961 -40.0298 16.4856 0.0000 0.0000 0.0000 -28.3181 -17.9140 -22.2199 2.6709 10.1423 29.4387 0.3291 5.7929 -14.5091 1.2144 -6.9905 -19.6871 0.0000 0.0000 0.0000 8.6187 17.9840 -63.9145 -17.8193 -19.8856 83.6124 0.0823 -8.3406 4.0072 -0.1989 2.8717 -7.9217 -2.2644 -0.7320 25.7630 -1.4528 -1.8343 7.3765 0.2703 -0.9528 -6.0927 -6.8922 1.4788 -5.5086 6.5738 2.7991 -17.0659 3.1386 1.4042 -4.3815 -0.0000 -0.0000 0.0000 -89.2257 -31.0533 51.1126 112.8360 -57.9348 -79.6395 -0.0000 -0.0000 66.1381 -39.2161 38.9270 -27.1464 -7.1250 0.0000 -0.0000 -75.3256 54.1638 -28.6881 -0.0000 -0.0000 0.0000 87.0922 47.7671 55.7692 -107.3547 58.8308 -74.9706 0.0000 0.0000 21.9174 14.4329 -4.0934 -1.0525 7.1250 -0.0000 -0.0000 32.0584 -32.4921 11.4502
19.5294 16.0095 -20.2201 10.3373 -40.6287 16.6735 0.0000 0.0000 0.0000 -28.5328 -17.8495 -21.5716 2.5991 10.0159 29.0282 0.2352 5.9709 -13.2661 1.2359 -7.0498 -19.8630 0.0000 0.0000 0.0000 7.4602 18.9282 -65.5819 -16.9835 -19.7804 81.1491 0.1202 -8.1826 2.7847 -0.1237 2.2675 -6.2457 -2.3696 -0.6915 25.2617 -1.7845 -1.8204 7.2337 -0.0433 -0.9442 -6.0104 -6.8228 1.6129 -5.4071 6.5860 2.9865 -17.3304 3.1272 1.4888 -4.4914 -0.0000 0.0000 0.0000 -88.6846 -30.9546 50.7555 113.4267 -57.8212 -80.1397 -0.0000 -0.0000 65.2253 -39.3368 39.4021 -27.4846 -7.1250 0.0000 -0.0000 -76.0206 54.3570 -29.6843 -0.0000 0.0000 0.0000 87.7103 47.8798 56.1583 -107.7432 58.7764 -75.3029 0.0000 0.0000 22.0224 15.4166 -4.1519 -1.1437 7.1250 -0.0000 -0.0000 32.7493 -32.4593 11.8195
19.3622 16.0598 -20.0489 10.0181 -41.2132 17.1710 0.0000 0.0000 0.0000 -28.2163 -17.6903 -21.5544 2.7316 10.2474 29.7816 0.1850 5.6283 -12.0991 1.1158 -6.7106 -18.8608 0.0000 0.0000 0.0000 6.9192 20.1295 -66.2906 -15.8566 -19.5833 77.8041 0.1440 -7.6445 1.1095 -0.0932 1.9689 -5.4196 -2.3163 -0.5205 24.9252 -1.9059 -1.5901 7.1475 -0.2777 -0.8343 -5.9460 -6.7701 1.6171 -5.6694 6.6509 3.0130 -17.3683 3.1412 1.4981 -4.4617 -0.0000 0.0000 0.0000 -88.3574 -30.9941 50.4870 113.6433 -57.7787 -80.3230 -0.0000 -0.0000 64.8696 -39.0570 39.0411 -27.0718 -7.1250 0.0000 -0.0000 -75.3658 54.2503 -28.9062 -0.0000 0.0000 0.0000 87.9854 48.1203 56.1097 -108.1593 58.7166 -75.6586 0.0000 0.0000 21.8991 16.1430 -4.3223 -1.2497 7.1250 -0.0000 -0.0000 33.2990 -32.5435 12.0113
